<svg xmlns="http://www.w3.org/2000/svg" width="220.495" height="43.56"><path fill="#FFF" d="M176.935 0h43.56v43.56h-43.56zM0 33.477V9.855h17.515v3.996H4.77v5.237h11.859v3.98H4.77v6.429h13.197v3.98H0zM25.362 21.585l-4.109-.741c.462-1.654 1.257-2.879 2.385-3.674 1.128-.794 2.804-1.192 5.027-1.192 2.019 0 3.523.239 4.512.717.988.478 1.684 1.085 2.086 1.821s.604 2.086.604 4.052l-.048 5.285c0 1.504.072 2.613.217 3.328s.416 1.479.814 2.296h-4.479c-.118-.301-.263-.746-.435-1.337-.076-.269-.129-.446-.161-.532-.773.752-1.601 1.316-2.481 1.692-.881.376-1.821.564-2.82.564-1.762 0-3.15-.478-4.166-1.434-1.015-.956-1.522-2.164-1.522-3.625 0-.967.23-1.829.693-2.586.462-.757 1.109-1.337 1.941-1.74s2.033-.754 3.602-1.056c2.116-.397 3.582-.768 4.399-1.112v-.451c0-.87-.215-1.49-.645-1.861-.43-.371-1.241-.556-2.433-.556-.806 0-1.434.159-1.885.476s-.817.872-1.096 1.666zm6.059 3.674c-.58.193-1.499.424-2.755.693-1.257.269-2.079.532-2.465.79-.591.419-.886.951-.886 1.595 0 .634.236 1.182.709 1.644.472.462 1.074.693 1.805.693.816 0 1.595-.269 2.336-.806.548-.408.907-.907 1.08-1.499.118-.387.177-1.123.177-2.208v-.902zM48.179 16.365v3.609h-3.094v6.896c0 1.397.029 2.21.088 2.441s.193.422.403.572c.209.15.464.226.766.226.419 0 1.026-.145 1.821-.435l.387 3.513c-1.053.451-2.245.677-3.577.677-.817 0-1.552-.137-2.208-.411-.656-.274-1.136-.628-1.442-1.063s-.519-1.023-.636-1.765c-.097-.526-.145-1.59-.145-3.19v-7.46h-2.079v-3.609h2.079v-3.4l4.544-2.643v6.042h3.093zM50.385 28.595l4.544-.693c.193.881.585 1.55 1.176 2.006s1.418.685 2.481.685c1.171 0 2.052-.214 2.643-.645.397-.301.596-.704.596-1.208 0-.343-.107-.628-.322-.854-.226-.214-.73-.414-1.515-.596-3.652-.806-5.967-1.542-6.945-2.208-1.354-.923-2.03-2.208-2.03-3.851 0-1.482.585-2.728 1.756-3.738 1.171-1.01 2.986-1.515 5.446-1.515 2.342 0 4.082.382 5.221 1.144 1.139.763 1.923 1.891 2.353 3.384l-4.27.79c-.183-.666-.529-1.176-1.039-1.531-.511-.354-1.238-.532-2.184-.532-1.192 0-2.046.167-2.562.5-.344.237-.516.543-.516.918 0 .322.15.596.451.822.408.301 1.818.725 4.23 1.273 2.412.548 4.095 1.22 5.051 2.014.945.806 1.418 1.929 1.418 3.368 0 1.568-.655 2.917-1.966 4.044s-3.25 1.692-5.817 1.692c-2.331 0-4.176-.472-5.535-1.418-1.357-.946-2.246-2.229-2.665-3.851zM76.009 33.477V9.855h4.528v8.508c1.396-1.59 3.051-2.385 4.963-2.385 2.084 0 3.808.755 5.172 2.264s2.046 3.677 2.046 6.501c0 2.922-.696 5.172-2.086 6.751-1.392 1.579-3.081 2.369-5.068 2.369-.978 0-1.941-.245-2.892-.733-.951-.489-1.77-1.211-2.458-2.167v2.514h-4.205zm4.495-8.927c0 1.772.279 3.083.838 3.932.784 1.204 1.826 1.805 3.126 1.805.999 0 1.85-.427 2.554-1.281.703-.854 1.055-2.2 1.055-4.037 0-1.955-.354-3.365-1.063-4.229s-1.617-1.297-2.723-1.297c-1.085 0-1.987.422-2.707 1.265s-1.08 2.124-1.08 3.842zM94.217 16.365h4.818l4.093 12.149 3.996-12.149h4.689l-6.042 16.468-1.08 2.981c-.397.999-.776 1.762-1.136 2.288-.36.526-.773.954-1.241 1.281-.467.327-1.042.583-1.724.765-.683.183-1.453.274-2.313.274-.87 0-1.724-.091-2.562-.274l-.403-3.545c.709.14 1.348.209 1.917.209 1.053 0 1.832-.309 2.336-.926.505-.618.892-1.405 1.16-2.361l-6.508-17.16zM131.068 16.365v3.609h-3.094v6.896c0 1.397.029 2.21.089 2.441.059.231.193.422.403.572.209.15.464.226.765.226.419 0 1.026-.145 1.821-.435l.387 3.513c-1.053.451-2.245.677-3.577.677-.816 0-1.552-.137-2.208-.411s-1.136-.628-1.442-1.063-.519-1.023-.637-1.765c-.097-.526-.145-1.59-.145-3.19v-7.46h-2.079v-3.609h2.079v-3.4l4.544-2.643v6.042h3.094zM138.722 9.855v8.685c1.461-1.708 3.207-2.562 5.237-2.562 1.042 0 1.982.193 2.82.58s1.469.881 1.894 1.482c.424.602.714 1.268.87 1.998.156.73.233 1.864.233 3.4v10.039h-4.528v-9.04c0-1.793-.086-2.933-.258-3.416s-.475-.867-.91-1.152-.98-.427-1.636-.427c-.752 0-1.423.183-2.014.548-.591.366-1.023.916-1.297 1.652s-.411 1.824-.411 3.263v8.572h-4.528V9.855h4.528zM164.278 28.031l4.512.757c-.58 1.655-1.496 2.914-2.747 3.779-1.252.865-2.817 1.297-4.697 1.297-2.976 0-5.178-.972-6.606-2.917-1.128-1.558-1.692-3.523-1.692-5.897 0-2.836.741-5.057 2.224-6.663s3.357-2.409 5.624-2.409c2.546 0 4.555.841 6.026 2.522s2.175 4.257 2.111 7.726h-11.344c.032 1.343.397 2.388 1.096 3.134s1.568 1.12 2.61 1.12c.709 0 1.305-.193 1.789-.58s.847-1.01 1.094-1.869zm.258-4.576c-.032-1.31-.371-2.307-1.015-2.989s-1.429-1.023-2.353-1.023c-.988 0-1.805.36-2.449 1.08-.645.72-.961 1.697-.951 2.933h6.768z"/><path d="M186.498 19.426h-4.528v-3.239c0-1.31.116-2.344.347-3.102.23-.757.658-1.437 1.281-2.039.623-.601 1.418-1.074 2.385-1.418l.886 1.869c-.902.301-1.549.72-1.942 1.257-.392.537-.599 1.252-.62 2.143h2.191v4.529zM191.219 33.477V10.048h4.77v19.449h11.859v3.98h-16.629zM209.282 9.919h4.528v3.239c0 1.311-.113 2.345-.338 3.102s-.652 1.437-1.281 2.038c-.627.602-1.426 1.075-2.393 1.418l-.886-1.869c.913-.301 1.563-.714 1.95-1.241.387-.526.59-1.246.612-2.159h-2.191V9.919z"/></svg>