<?xml version="1.0" encoding="utf-8"?>
<!-- Generator: Adobe Illustrator 13.0.1, SVG Export Plug-In . SVG Version: 6.00 Build 14948)  -->
<!DOCTYPE svg PUBLIC "-//W3C//DTD SVG 1.1//EN" "http://www.w3.org/Graphics/SVG/1.1/DTD/svg11.dtd">
<svg version="1.1" id="Layer_1" xmlns="http://www.w3.org/2000/svg" xmlns:xlink="http://www.w3.org/1999/xlink" x="0px" y="0px"
	 width="32px" height="32px" viewBox="0 0 32 32" enable-background="new 0 0 32 32" xml:space="preserve">
<path fill="#3B3B3B" d="M15.999,0C11.214,0,8,1.805,8,6.5v17l7.999,8.5L24,23.5v-17C24,1.805,20.786,0,15.999,0z"/>
<path fill="#FFFFFF" d="M16,14.402c-2.43,0-4.399-1.971-4.399-4.401c0,0,0,0,0-0.001c-0.052-2.43,1.875-4.441,4.305-4.493
	s4.441,1.875,4.492,4.305c0.002,0.063,0.002,0.125,0,0.188C20.4,12.43,18.432,14.401,16,14.402C16,14.402,16,14.402,16,14.402z"/>
</svg>
